<?xml version="1.0" encoding="UTF-8"?>
<svg xmlns="http://www.w3.org/2000/svg" version="1.1" height="80" width="80">
 <defs>
  <linearGradient id="hicg_overlay_grad" gradientUnits="userSpaceOnUse" x1="39.9995" y1="5.1816" x2="39.9995" y2="58.8019">
   <stop offset="0" style="stop-color:#FFFFFF"/>
   <stop offset="1" style="stop-color:#000000"/>
  </linearGradient>
  <filter id="hicg_drop_shadow">
    <feOffset in="SourceAlpha" dx="0" dy="4"/>
    <feGaussianBlur stdDeviation="4"/>
	<feColorMatrix type="matrix" values="1 0 0 0 0  0 1 0 0 0  0 0 1 0 0  0 0 0 0.5 0" result="shadow"/>
    <feBlend in="SourceGraphic" in2="shadow" mode="normal"/>
  </filter>
 </defs>
 <g>
  <path id="hicg_background" fill="#a8a7a2" d="M79,40c0,28.893-10.105,39-39,39S1,68.893,1,40C1,11.106,11.105,1,40,1S79,11.106,79,40z"/>
  <path id="hicg_highlight" fill="#fff" opacity="0.25" d="M39.999,1C11.105,1,1,11.106,1,40c0,28.893,10.105,39,38.999,39   C68.896,79,79,68.893,79,40C79,11.106,68.896,1,39.999,1z M39.999,78.025C11.57,78.025,1.976,68.43,1.976,40   c0-28.429,9.595-38.024,38.023-38.024c28.43,0,38.024,9.596,38.024,38.024C78.023,68.43,68.429,78.025,39.999,78.025z"/>
  <path id="hicg_overlay" opacity="0.4" fill="url(#hicg_overlay_grad)" d="M78.977,40c0,28.893-10.1,39-38.977,39S1.023,68.893,1.023,40c0-28.894,10.1-39,38.977-39S78.977,11.106,78.977,40z"/>
 </g>
<g xmlns:rdf="http://www.w3.org/1999/02/22-rdf-syntax-ns#" xmlns:cc="http://creativecommons.org/ns#" xmlns:dc="http://purl.org/dc/elements/1.1/" xmlns:sodipodi="http://sodipodi.sourceforge.net/DTD/sodipodi-0.dtd" xmlns:inkscape="http://www.inkscape.org/namespaces/inkscape" transform="translate(13, 17.029850746269) scale(0.80597014925373)" filter="url(#hicg_drop_shadow)"><metadata xmlns="http://www.w3.org/2000/svg" xmlns:rdf="http://www.w3.org/1999/02/22-rdf-syntax-ns#" xmlns:cc="http://creativecommons.org/ns#" xmlns:dc="http://purl.org/dc/elements/1.1/" id="metadata31"><rdf:RDF><cc:Work rdf:about=""><dc:format>image/svg+xml</dc:format><dc:type rdf:resource="http://purl.org/dc/dcmitype/StillImage"/><dc:title/></cc:Work></rdf:RDF></metadata><defs xmlns="http://www.w3.org/2000/svg" id="defs29"/><sodipodi:namedview xmlns:sodipodi="http://sodipodi.sourceforge.net/DTD/sodipodi-0.dtd" xmlns:inkscape="http://www.inkscape.org/namespaces/inkscape" pagecolor="#ffffff" bordercolor="#666666" borderopacity="1" objecttolerance="10" gridtolerance="10" guidetolerance="10" inkscape:pageopacity="0" inkscape:pageshadow="2" inkscape:window-width="1440" inkscape:window-height="821" id="namedview27" showgrid="false" inkscape:zoom="4.9824561" inkscape:cx="33.5" inkscape:cy="31.309859" inkscape:window-x="-4" inkscape:window-y="-3" inkscape:window-maximized="1" inkscape:current-layer="svg2"/>
<g xmlns="http://www.w3.org/2000/svg" id="DO_NOT_EDIT_-_BOUNDING_BOX">
	<rect id="BOUNDING_BOX" fill="none" width="67" height="57"/>
</g>
<g xmlns="http://www.w3.org/2000/svg" xmlns:inkscape="http://www.inkscape.org/namespaces/inkscape" id="PLACE_YOUR_GRAPHIC_HERE" transform="matrix(1.3721391,0,0,1.5278796,-12.165603,-14.843864)">
	<path d="M 40.062,12.269 C 40.029,12.266 40.001,12.25 39.969,12.25 H 27.031 c -0.032,0 -0.061,0.016 -0.093,0.019 C 14.793,12.463 10.5,17.004 10.5,29.5 c 0,12.496 4.293,17.037 16.438,17.23 0.032,0.004 0.061,0.02 0.093,0.02 h 12.938 c 0.032,0 0.06,-0.016 0.093,-0.02 C 52.207,46.537 56.5,41.996 56.5,29.5 56.5,17.004 52.207,12.463 40.062,12.269 z m 3.283,17.78 -5.93,3.424 c -0.686,0.396 -1.807,1.043 -2.49,1.438 l -5.93,3.424 C 28.308,38.73 27.75,38.407 27.75,37.616 v -16.57 c 0,-0.791 0.559,-1.113 1.245,-0.719 l 5.93,3.424 c 0.684,0.396 1.805,1.041 2.49,1.438 l 5.93,3.424 c 0.684,0.393 0.684,1.041 0,1.436 z" id="path7" inkscape:connector-curvature="0" style="opacity:0.3"/>
	<rect x="16.381001" y="16.445999" width="30" height="30" id="rect9" style="fill:none"/>
	<path d="m 27.031,46.75 c -0.058,0 -0.134,-0.009 -0.205,-0.021 C 14.199,46.503 9.5,41.554 9.5,28.5 c 0,-13.055 4.699,-18.004 17.331,-18.229 0.07,-0.012 0.145,-0.021 0.2,-0.021 h 12.938 c 0.062,0 0.143,0.01 0.218,0.023 12.6,0.209 17.313,5.153 17.313,18.227 0,13.055 -4.699,18.003 -17.328,18.229 -0.071,0.013 -0.146,0.021 -0.203,0.021 H 27.031 z m 1.719,-10.426 13.832,-7.99 -13.824,-7.99 -0.008,15.98 z" id="path11" inkscape:connector-curvature="0" style="opacity:0.15"/>
	<path d="M 40.062,11.269 C 40.029,11.266 40.001,11.25 39.969,11.25 H 27.031 c -0.032,0 -0.061,0.016 -0.093,0.019 C 14.793,11.463 10.5,16.004 10.5,28.5 c 0,12.496 4.293,17.037 16.438,17.23 0.032,0.004 0.061,0.02 0.093,0.02 h 12.938 c 0.032,0 0.06,-0.016 0.093,-0.02 C 52.207,45.537 56.5,40.996 56.5,28.5 56.5,16.004 52.207,11.463 40.062,11.269 z m 3.283,17.78 -5.93,3.424 c -0.686,0.396 -1.807,1.043 -2.49,1.438 l -5.93,3.424 C 28.308,37.73 27.75,37.407 27.75,36.616 v -16.57 c 0,-0.791 0.559,-1.113 1.245,-0.719 l 5.93,3.424 c 0.684,0.396 1.805,1.041 2.49,1.438 l 5.93,3.424 c 0.684,0.393 0.684,1.041 0,1.436 z" id="path13" inkscape:connector-curvature="0" style="opacity:0.15"/>
	<linearGradient id="SVGID_1_" gradientUnits="userSpaceOnUse" x1="33.5005" y1="45.75" x2="33.5005" y2="11.2505">
		<stop offset="0" style="stop-color:#D0CBC5" id="stop16"/>
		<stop offset="0.5031" style="stop-color:#FAFCEF" id="stop18"/>
		<stop offset="0.9693" style="stop-color:#FFFFFF" id="stop20"/>
	</linearGradient>
	<path d="M 40.062,11.269 C 40.029,11.266 40.001,11.25 39.969,11.25 H 27.031 c -0.032,0 -0.061,0.016 -0.093,0.019 C 14.793,11.463 10.5,16.004 10.5,28.5 c 0,12.496 4.293,17.037 16.438,17.23 0.032,0.004 0.061,0.02 0.093,0.02 h 12.938 c 0.032,0 0.06,-0.016 0.093,-0.02 C 52.207,45.537 56.5,40.996 56.5,28.5 56.5,16.004 52.207,11.463 40.062,11.269 z m 3.283,17.78 -5.93,3.424 c -0.686,0.396 -1.807,1.043 -2.49,1.438 l -5.93,3.424 C 28.308,37.73 27.75,37.407 27.75,36.616 v -16.57 c 0,-0.791 0.559,-1.113 1.245,-0.719 l 5.93,3.424 c 0.684,0.396 1.805,1.041 2.49,1.438 l 5.93,3.424 c 0.684,0.393 0.684,1.041 0,1.436 z" id="path22" style="fill:url(#SVGID_1_)" inkscape:connector-curvature="0"/>
	<path d="M 10.511,29 C 10.51,28.83 10.5,28.673 10.5,28.5 10.5,16.004 14.793,11.463 26.938,11.269 26.97,11.266 26.999,11.25 27.031,11.25 h 12.938 c 0.032,0 0.06,0.016 0.093,0.019 C 52.207,11.463 56.5,16.004 56.5,28.5 56.5,28.673 56.49,28.83 56.488,29 56.37,16.895 52.038,12.461 40.061,12.269 40.028,12.266 40,12.25 39.968,12.25 H 27.031 c -0.032,0 -0.061,0.016 -0.093,0.019 C 14.962,12.461 10.63,16.895 10.511,29 z m 18.484,9.334 5.93,-3.424 c 0.684,-0.395 1.805,-1.041 2.49,-1.438 l 5.93,-3.424 c 0.57,-0.328 0.658,-0.831 0.279,-1.219 -0.076,0.078 -0.165,0.153 -0.279,0.219 l -5.93,3.424 c -0.686,0.396 -1.807,1.043 -2.49,1.438 l -5.93,3.424 c -0.687,0.395 -1.245,0.072 -1.245,-0.719 v 1 c 0,0.791 0.559,1.114 1.245,0.719 z" id="path24" inkscape:connector-curvature="0" style="fill:#ffffff"/>
</g>
<g xmlns="http://www.w3.org/2000/svg" id="DO_NOT_EDIT_-_FOCAL_ZONE_GUIDES">
</g>
</g></svg>
